<svg width="24" height="24" viewBox="0 0 24 24" fill="ffffff" xmlns="http://www.w3.org/2000/svg">
<path fill-rule="evenodd" clip-rule="evenodd" d="M7.275 8.25C7.275 3.675 10.95 0 15.525 0C17.475 0 19.35 0.675 20.85 1.875C24.375 4.8 24.825 9.975 21.9 13.5C18.975 17.025 13.8 17.475 10.275 14.55L1.05 23.775L0 22.725L9.225 13.575C7.95 12.075 7.275 10.2 7.275 8.25ZM8.775 8.25C8.775 12 11.775 15 15.525 15C19.275 15 22.275 12 22.275 8.25C22.275 4.5 19.275 1.5 15.525 1.5C11.775 1.5 8.775 4.5 8.775 8.25Z" fill="#ffffff"/>
<path d="M15.5249 3V4.5C17.6249 4.5 19.2749 6.15 19.2749 8.25H20.7749C20.7749 5.325 18.4499 3 15.5249 3Z" fill="#ffffff"/>
</svg>
