<svg width="24" height="24" fill="ffffff" xmlns="http://www.w3.org/2000/svg"><path fill-rule="evenodd" clip-rule="evenodd" d="M7.275 8.25A8.226 8.226 0 0115.525 0c1.95 0 3.825.675 5.325 1.875 3.525 2.925 3.975 8.1 1.05 11.625-2.925 3.525-8.1 3.975-11.625 1.05L1.05 23.775 0 22.725l9.225-9.15a8.182 8.182 0 01-1.95-5.325zm1.5 0c0 3.75 3 6.75 6.75 6.75s6.75-3 6.75-6.75-3-6.75-6.75-6.75-6.75 3-6.75 6.75z" fill="#fff"/><path d="M15.525 3v1.5c2.1 0 3.75 1.65 3.75 3.75h1.5A5.218 5.218 0 0015.525 3z" fill="#fff"/></svg>